<svg xmlns="http://www.w3.org/2000/svg" width="219.79" height="40.644"><path fill="#F5E833" d="M219.79 36.81a3.834 3.834 0 01-3.833 3.834h-211a3.833 3.833 0 110-7.667h211a3.833 3.833 0 013.833 3.833z"/><path fill="#0062AE" d="M3.365 13.775h-.207c-.983 0-1.754-.219-2.317-.652C.278 12.691 0 12.104 0 11.364c0-.764.278-1.356.841-1.771.563-.415 1.405-.658 2.524-.729V6.417c0-1.38.231-2.406.693-3.075.462-.669 1.167-1.007 2.115-1.007.942 0 1.635.338 2.091 1.007.456.669.687 1.695.687 3.075v2.447h.486c1.113 0 1.979.219 2.595.664.622.438.93 1.048.93 1.825 0 .806-.296 1.41-.895 1.813-.599.409-1.487.61-2.667.61h-.45v9.93c0 1.387-.225 2.411-.675 3.081-.45.664-1.149.995-2.103.995-.948 0-1.653-.338-2.115-1.007s-.693-1.694-.693-3.069v-9.931h.001zM13.81 3.656c0-.889.32-1.654.954-2.293.64-.634 1.399-.954 2.293-.954.877 0 1.629.32 2.257.954.622.639.937 1.404.937 2.293 0 .9-.309 1.664-.93 2.292-.617.622-1.375.936-2.264.936-.913 0-1.682-.314-2.311-.936a3.14 3.14 0 01-.936-2.292zm6.008 20.049c0 1.387-.226 2.411-.676 3.081-.45.664-1.143.995-2.085.995-.948 0-1.653-.338-2.115-1.007s-.693-1.694-.693-3.069V12.436c0-1.375.231-2.393.687-3.063.456-.664 1.162-.995 2.121-.995.942 0 1.636.332 2.085.995.45.67.676 1.688.676 3.063v11.269zm2.914-5.629c0-2.95.883-5.344 2.654-7.18 1.771-1.843 4.099-2.761 6.979-2.761 1.866 0 3.377.332 4.532.995 1.156.67 1.735 1.535 1.735 2.602 0 .681-.219 1.25-.658 1.7-.444.45-.995.676-1.67.676-.29 0-.871-.143-1.754-.427-.876-.284-1.605-.427-2.186-.427-1.155 0-2.092.433-2.802 1.304-.711.865-1.067 2.002-1.067 3.412 0 1.469.367 2.625 1.097 3.466.729.835 1.723 1.256 2.979 1.256.617 0 1.345-.143 2.198-.427.853-.279 1.404-.421 1.659-.421.61 0 1.125.237 1.545.705.416.469.622 1.042.622 1.724 0 1.031-.627 1.908-1.889 2.636-1.262.729-2.826 1.096-4.687 1.096-2.755 0-4.995-.919-6.712-2.749-1.715-1.836-2.575-4.229-2.575-7.18zm23.604-3.258l4.776-4.948c.509-.533.995-.918 1.458-1.161.461-.243.93-.367 1.403-.367.664 0 1.221.213 1.677.64.457.433.688.942.688 1.529 0 .438-.125.901-.379 1.375a5.315 5.315 0 01-1.042 1.333l-3.769 3.472 5.226 6.162c.379.45.657.895.829 1.327.172.438.26.889.26 1.362 0 .652-.248 1.197-.752 1.641-.503.445-1.125.669-1.865.669a2.995 2.995 0 01-1.541-.426c-.48-.284-.937-.717-1.375-1.31l-5.593-7.465v5.054c0 1.387-.23 2.423-.693 3.117-.462.687-1.167 1.03-2.115 1.03-.942 0-1.641-.343-2.103-1.03-.462-.693-.693-1.73-.693-3.117V4.503c0-1.386.231-2.417.687-3.086C41.876.748 42.575.41 43.529.41c.948 0 1.653.343 2.115 1.025.462.682.693 1.707.693 3.069v10.314h-.001zm17.259 1.161h7.394c-.071-.948-.45-1.742-1.143-2.376a3.569 3.569 0 00-2.482-.954c-.948 0-1.766.302-2.447.9-.688.605-1.127 1.411-1.322 2.43zm.071 3.662c.124 1.054.557 1.873 1.298 2.465.746.587 1.723.883 2.938.883 1.049 0 2.222-.303 3.514-.913 1.292-.61 2.085-.913 2.387-.913.658 0 1.197.202 1.618.61.415.403.622.925.622 1.559 0 1.209-.841 2.292-2.518 3.259-1.677.965-3.649 1.451-5.919 1.451-2.767 0-5.077-.941-6.926-2.832-1.854-1.885-2.779-4.248-2.779-7.098 0-2.856.9-5.238 2.702-7.151 1.795-1.908 4.04-2.861 6.724-2.861 2.589 0 4.764.895 6.511 2.69 1.748 1.795 2.619 3.987 2.619 6.576 0 .847-.189 1.434-.575 1.772-.379.337-1.114.503-2.204.503H63.666zm16.381-5.866h-.207c-.983 0-1.753-.219-2.316-.652-.563-.432-.841-1.019-.841-1.759 0-.764.278-1.356.841-1.771.563-.415 1.404-.658 2.523-.729V6.417c0-1.38.231-2.406.693-3.075.462-.669 1.167-1.007 2.116-1.007.942 0 1.635.338 2.091 1.007.456.669.687 1.695.687 3.075v2.447h.486c1.113 0 1.979.219 2.595.664.622.438.93 1.048.93 1.825 0 .806-.295 1.41-.895 1.813-.599.409-1.487.61-2.666.61h-.451v9.93c0 1.387-.225 2.411-.675 3.081-.45.664-1.149.995-2.103.995-.948 0-1.654-.338-2.116-1.007s-.693-1.694-.693-3.069v-9.931h.001zm16.204 4.373c0 1.433.344 2.588 1.025 3.466.687.871 1.576 1.31 2.679 1.31 1.095 0 1.99-.439 2.671-1.321.682-.877 1.025-2.032 1.025-3.454 0-1.375-.35-2.5-1.049-3.377-.705-.871-1.588-1.31-2.647-1.31-1.079 0-1.962.433-2.661 1.304-.693.863-1.043 1.995-1.043 3.382zm.107 13.123c0 1.387-.231 2.417-.694 3.087-.462.669-1.167 1.007-2.115 1.007-.954 0-1.653-.338-2.109-1.007-.457-.67-.688-1.7-.688-3.087V12.436c0-1.38.231-2.399.688-3.063.456-.669 1.155-1.001 2.109-1.001.563 0 1.066.148 1.505.444.445.296.83.741 1.167 1.345a5.683 5.683 0 012.038-1.439c.782-.326 1.642-.485 2.578-.485 2.405 0 4.432.936 6.078 2.813 1.642 1.872 2.465 4.218 2.465 7.026 0 2.804-.841 5.185-2.524 7.139-1.689 1.956-3.714 2.933-6.09 2.933-.841 0-1.629-.136-2.352-.409s-1.41-.682-2.055-1.22v4.752h-.001zm20.488-13.259c0 1.433.343 2.589 1.024 3.466.682.871 1.57 1.309 2.672 1.309 1.096 0 1.984-.438 2.666-1.321.681-.877 1.025-2.033 1.025-3.454 0-1.375-.349-2.5-1.048-3.377-.699-.871-1.582-1.31-2.642-1.31-1.09 0-1.979.433-2.667 1.304-.688.865-1.03 1.996-1.03 3.383zm-5.801.071c0-2.921.894-5.314 2.683-7.199 1.784-1.877 4.059-2.819 6.808-2.819 2.767 0 5.036.936 6.808 2.814 1.771 1.872 2.654 4.272 2.654 7.205 0 2.927-.882 5.327-2.654 7.21-1.771 1.879-4.041 2.82-6.808 2.82-2.749 0-5.024-.941-6.808-2.832-1.789-1.886-2.683-4.284-2.683-7.199zm21.726 5.622V12.436c0-1.375.231-2.393.687-3.063.457-.664 1.156-.995 2.11-.995.563 0 1.066.148 1.504.444.445.29.83.74 1.167 1.344.575-.627 1.191-1.101 1.837-1.416.651-.319 1.303-.479 1.961-.479.775 0 1.446.272 2.009.823.563.551.841 1.203.841 1.956 0 1.12-1.031 2.062-3.092 2.814-.741.266-1.293.486-1.666.658-.705.337-1.173.71-1.404 1.12-.231.409-.35 1.155-.35 2.227v5.836c0 1.375-.231 2.399-.693 3.069s-1.167 1.007-2.115 1.007c-.954 0-1.653-.338-2.11-1.007-.456-.67-.686-1.694-.686-3.069zm14.633-9.93h-.207c-.983 0-1.754-.219-2.317-.652-.563-.432-.841-1.019-.841-1.759 0-.764.278-1.356.841-1.771.563-.415 1.404-.658 2.524-.729V6.417c0-1.38.231-2.406.693-3.075.462-.669 1.168-1.007 2.115-1.007.943 0 1.636.338 2.092 1.007.457.669.688 1.695.688 3.075v2.447h.486c1.113 0 1.979.219 2.595.664.622.438.93 1.048.93 1.825 0 .806-.296 1.41-.895 1.813-.598.409-1.487.61-2.666.61h-.45v9.93c0 1.387-.225 2.411-.675 3.081-.45.664-1.149.995-2.104.995-.947 0-1.652-.338-2.115-1.007-.461-.669-.693-1.694-.693-3.069v-9.931h-.001zm22.792 12.062a5.6 5.6 0 01-2.056 1.588 6.364 6.364 0 01-2.631.545c-2.394 0-4.414-.942-6.049-2.832-1.641-1.885-2.458-4.237-2.458-7.063 0-2.79.847-5.136 2.536-7.05 1.688-1.908 3.75-2.862 6.179-2.862.948 0 1.795.159 2.53.486.734.326 1.386.83 1.949 1.51.326-.592.711-1.037 1.167-1.338.45-.302.954-.45 1.504-.45.936 0 1.635.332 2.086.989.45.658.675 1.683.675 3.069v11.269c0 1.38-.231 2.405-.688 3.075s-1.144 1.007-2.074 1.007c-.622 0-1.149-.16-1.576-.468-.424-.312-.791-.805-1.094-1.475zm-7.393-7.832c0 1.38.338 2.488 1.006 3.325.67.841 1.547 1.262 2.62 1.262 1.054 0 1.919-.427 2.589-1.274.669-.853 1.007-1.955 1.007-3.313 0-1.321-.337-2.393-1.013-3.228-.681-.835-1.54-1.25-2.583-1.25-1.061 0-1.932.415-2.614 1.244-.674.823-1.012 1.901-1.012 3.234zm16.885-13.502c0-1.386.231-2.417.693-3.086.462-.669 1.167-1.007 2.115-1.007.93 0 1.618.338 2.074 1.013.456.681.687 1.707.687 3.081v19.202c0 1.387-.225 2.411-.675 3.081-.45.664-1.144.995-2.085.995-.947 0-1.653-.338-2.115-1.007s-.693-1.694-.693-3.069V4.503h-.001z"/><path fill="none" d="M215.486 33.416v-.625H97.188v.625h-.103v.416h-.103v.207h-.104v.313h-.104v.104h-.103v.207h-.103v.208h-.103v.104h-.104v.104h-.104v.208h-.103v.104h-.103v.105h-.104v.104h-.207v.104h-.103v.104h-.104v.103h-.206v.104h-.104v.104h-.31v.105h-.208v.104h-.413v.104H92.97v-.104h-.415v-.104h-.207v-.105h-.31v-.104h-.104v-.104h-.206v-.103h-.207v-.104h-.104V35.6h-.104v-.104h-.207v-.105h-.103v-.104h-.104v-.103h-.103v-.105h-.104v-.104h-.103v-.104h-.103v-.208h-.104v-.207h-.103v-.209h-.104v-.312h-.103v-.415h-.104v-.417h-.103v-.312H6.853v.104h-.622v.104h-.517v.104h-.31v.105h-.31v.103h-.311v.105h-.104v.104h-.206v.104h-.207v.104h-.104v.104h-.103v.103h-.104v.104h-.103v.104h-.104v.104h-.103v.105h-.104v.311h-.103v.416h-.104v3.042h.104v.416h.103v.208h.104v.208h.103v.208h.104v.104h.103v.104h.104v.104h.103v.104h.104v.104h.207v.104h.103v.104h.103v.104h.311v.104h.207v.104h.31v.104h.517v.104h209.461v-3.953h.001v-.104h.001v-.233h-.001v-.078h.001v-.13h-.001v-.079h.001v-.128h-.001v-.185h.001v-.544h-.001v-.079h.001v-.233h-.001v-.184h.001v-1.063z"/><path fill="#0062AE" d="M188.104 3.843V1.464h1.012c.254 0 .439.021.554.064a.55.55 0 01.277.228c.069.11.104.234.104.375a.635.635 0 01-.158.442c-.104.116-.262.189-.471.219.104.062.19.128.257.2s.159.201.273.386l.291.464h-.574l-.347-.518a3.683 3.683 0 00-.253-.35.362.362 0 00-.145-.099.82.82 0 00-.242-.026h-.098v.993h-.48v.001zm.48-1.373h.355c.23 0 .374-.009.432-.029a.253.253 0 00.134-.101.313.313 0 00.049-.178.282.282 0 00-.064-.194.299.299 0 00-.181-.094 4.241 4.241 0 00-.35-.008h-.375v.604zm-78.141 37.209l-2.158-5.418a.967.967 0 01-.068-.223 1.14 1.14 0 01-.026-.241c0-.229.08-.42.239-.573a.826.826 0 01.598-.229c.174 0 .318.053.43.158.113.106.216.286.309.538l1.494 4.022 1.387-3.964c.092-.281.201-.478.32-.587a.67.67 0 01.476-.167c.244 0 .435.066.575.199.139.133.209.316.209.545a1.578 1.578 0 01-.107.559l-2.092 5.318c-.094.238-.204.411-.332.514a.736.736 0 01-.486.155.706.706 0 01-.455-.141c-.117-.093-.222-.248-.313-.465zm8.904-1.726c0 .708-.252 1.283-.757 1.723-.503.439-1.167.659-1.99.659-.632 0-1.172-.112-1.62-.34-.446-.228-.67-.493-.67-.798 0-.216.071-.393.215-.525s.338-.2.581-.2c.122 0 .372.061.756.179.381.122.703.181.967.181a.807.807 0 00.568-.208.676.676 0 00.229-.521.68.68 0 00-.234-.54c-.154-.137-.488-.283-1.001-.437-.742-.221-1.261-.483-1.556-.788-.295-.302-.442-.709-.442-1.221 0-.659.237-1.197.711-1.615.475-.418 1.094-.627 1.856-.627.561 0 1.022.1 1.386.299.363.199.544.447.544.746 0 .214-.065.382-.193.503s-.305.183-.533.183c-.126 0-.333-.042-.617-.125-.286-.081-.5-.122-.646-.122-.241 0-.432.056-.574.167a.53.53 0 00-.214.439c0 .29.313.532.943.729l.34.108c.677.226 1.171.513 1.484.858.31.346.467.776.467 1.293zm1.743-3.387h-.593c-.39 0-.679-.062-.867-.184-.188-.124-.282-.311-.282-.561 0-.255.094-.446.284-.571.191-.124.478-.188.865-.188h2.805c.384 0 .671.063.861.188.191.125.288.316.288.571 0 .25-.095.437-.284.561-.19.122-.478.184-.865.184h-.597v4.523c0 .387-.067.674-.199.862-.132.188-.335.282-.607.282-.274 0-.477-.094-.609-.282-.133-.188-.199-.475-.199-.862v-4.523h-.001zm3.788 2.54V34.12c0-.385.066-.673.2-.864.133-.189.335-.283.608-.283.272 0 .475.094.608.283.133.191.199.479.199.864v2.805c0 .626.119 1.097.356 1.413.24.317.595.475 1.068.475.47 0 .825-.158 1.064-.475.241-.316.36-.787.36-1.413V34.12c0-.385.066-.673.2-.864.132-.189.333-.283.604-.283.271 0 .474.094.607.283.133.191.199.479.199.864v2.986c0 1.027-.267 1.826-.801 2.396-.537.569-1.28.853-2.233.853-.957 0-1.702-.284-2.238-.853-.534-.57-.801-1.369-.801-2.396zm8.944 1.983c0 .387-.067.674-.199.862-.133.188-.335.282-.607.282-.274 0-.477-.094-.609-.282-.133-.188-.2-.475-.2-.862v-4.893c0-.431.083-.728.248-.889.166-.162.455-.244.867-.244h1.454c.8 0 1.433.216 1.896.649s.696 1.019.696 1.758c0 .752-.218 1.34-.653 1.764-.433.425-1.036.638-1.808.638h-1.083v1.217h-.002zm0-2.681h.695c.365 0 .641-.077.825-.235.184-.158.277-.392.277-.702 0-.314-.089-.546-.268-.697-.181-.151-.458-.226-.833-.226h-.695v1.86h-.001zm7.347-3.345c.383 0 .67.063.861.188.19.125.287.316.287.571 0 .25-.095.437-.284.561-.191.122-.478.184-.865.184h-1.312v1.265h1.132c.384 0 .674.062.863.185.189.123.284.313.284.564 0 .252-.095.44-.284.561-.189.122-.479.183-.863.183h-1.132v1.33h1.361c.388 0 .678.062.866.184.187.123.281.311.281.56 0 .252-.094.44-.281.564-.188.122-.478.183-.866.183h-1.882c-.419 0-.707-.071-.86-.213-.156-.143-.233-.41-.233-.802v-4.934c0-.43.082-.727.247-.89.166-.16.455-.242.866-.242h1.814v-.002zm3.717 6.028c0 .385-.067.672-.199.86-.133.188-.335.282-.608.282-.274 0-.476-.094-.609-.282-.133-.188-.199-.475-.199-.86v-5.03c0-.363.061-.634.184-.812.125-.177.312-.267.564-.267.163 0 .309.04.442.119.131.079.269.213.415.4l2.975 3.934V34.12c0-.385.066-.673.199-.864.133-.189.335-.283.609-.283.272 0 .475.094.607.283.132.191.2.479.2.864v5.151c0 .344-.06.597-.18.76-.122.165-.307.246-.559.246a.853.853 0 01-.474-.141 1.85 1.85 0 01-.451-.447l-2.917-3.855v3.257h.001zm9.502-5.539c.184-.211.339-.357.464-.437a.704.704 0 01.373-.118c.193 0 .363.074.507.218a.71.71 0 01.216.516.859.859 0 01-.099.387c-.067.131-.17.267-.309.41l-1.74 1.813 2.158 2.349c.133.146.234.289.304.427.07.137.105.26.105.371a.707.707 0 01-.229.52.715.715 0 01-.88.125c-.113-.066-.282-.221-.504-.465L152.335 37v2.092c0 .385-.065.672-.199.86-.133.188-.335.282-.606.282-.274 0-.477-.094-.61-.282-.133-.188-.2-.475-.2-.86V34.12c0-.385.067-.673.2-.864.133-.189.335-.283.61-.283.271 0 .474.094.606.283.134.191.199.479.199.864v1.751l2.053-2.319zm5.241.018c.137-.194.279-.344.429-.45a.752.752 0 01.437-.158c.179 0 .34.074.486.22a.667.667 0 01.219.481c0 .201-.111.458-.335.773l-.035.043-1.634 2.33v2.28c0 .387-.066.674-.199.862-.133.188-.334.282-.605.282-.272 0-.474-.094-.607-.282-.133-.188-.199-.475-.199-.862v-2.28l-1.633-2.309-.01-.016c-.233-.323-.35-.591-.35-.802a.66.66 0 01.225-.501.776.776 0 01.554-.209c.133 0 .265.049.398.151.133.1.275.256.429.466l1.205 1.727 1.225-1.746zm6.766 5.521c0 .385-.066.672-.199.86-.133.188-.335.282-.607.282-.275 0-.477-.094-.61-.282-.132-.188-.199-.475-.199-.86v-5.03c0-.363.062-.634.185-.812.124-.177.312-.267.564-.267a.84.84 0 01.441.119c.131.079.269.213.416.4l2.975 3.934V34.12c0-.385.066-.673.199-.864.133-.189.335-.283.609-.283.272 0 .475.094.608.283.133.191.199.479.199.864v5.151c0 .344-.06.597-.18.76-.121.165-.307.246-.559.246a.853.853 0 01-.474-.141 1.886 1.886 0 01-.452-.447l-2.916-3.855v3.257zm6.991-.278l-.242.715c-.078.235-.183.417-.314.541a.646.646 0 01-.459.188.738.738 0 01-.553-.222.765.765 0 01-.215-.558c0-.09.006-.174.019-.252.014-.078.032-.149.058-.214l1.843-5.003c.132-.36.3-.624.499-.793.2-.167.445-.253.737-.253.276 0 .515.08.717.241.203.161.359.394.468.697l1.796 5.086c.035.107.062.204.08.287.019.084.027.159.027.224 0 .224-.075.406-.224.547s-.34.212-.573.212a.728.728 0 01-.52-.195c-.138-.13-.246-.328-.327-.594l-.199-.656h-2.618v.002zm.459-1.488h1.691l-.817-2.626-.874 2.626zm9.453 1.328h.734c.646 0 1.126-.176 1.447-.53.319-.353.479-.888.479-1.602 0-.654-.163-1.146-.488-1.469-.327-.324-.815-.487-1.465-.487h-.707v4.088zm.797-5.59c.451 0 .85.04 1.195.121.345.082.65.207.917.376.466.298.833.71 1.1 1.238.268.526.402 1.104.402 1.733 0 1.112-.309 1.991-.927 2.641-.617.649-1.459.972-2.53.972h-1.475c-.418 0-.706-.071-.859-.213-.156-.143-.234-.41-.234-.802v-4.934c0-.43.083-.727.247-.89.166-.16.455-.242.867-.242h1.297zm5.934 3.566c0 .661.158 1.19.472 1.587.315.396.731.596 1.25.596s.934-.199 1.25-.596c.313-.397.471-.927.471-1.587 0-.684-.156-1.228-.467-1.63-.312-.401-.73-.603-1.254-.603s-.943.201-1.255.603c-.31.402-.467.946-.467 1.63zm-1.756-.02c0-1.118.32-2.021.961-2.71.64-.689 1.479-1.034 2.517-1.034 1.04 0 1.88.345 2.523 1.036.643.69.962 1.594.962 2.708 0 1.123-.32 2.028-.961 2.715-.639.687-1.482 1.031-2.525 1.031-1.044 0-1.886-.344-2.521-1.031-.637-.687-.956-1.593-.956-2.715zm12.526 1.344c0 .708-.252 1.283-.757 1.723-.502.439-1.167.659-1.99.659-.632 0-1.171-.112-1.62-.34-.447-.228-.671-.493-.671-.798 0-.216.071-.393.215-.525s.338-.2.581-.2c.122 0 .372.061.755.179.382.122.704.181.968.181a.805.805 0 00.567-.208.676.676 0 00.229-.521.683.683 0 00-.233-.54c-.155-.137-.488-.283-1.002-.437-.742-.221-1.261-.483-1.555-.788-.295-.302-.443-.709-.443-1.221 0-.659.237-1.197.712-1.615.475-.418 1.094-.627 1.855-.627.562 0 1.023.1 1.387.299.363.199.544.447.544.746 0 .214-.064.382-.192.503s-.306.183-.533.183c-.125 0-.332-.042-.617-.125-.286-.081-.5-.122-.646-.122-.241 0-.432.056-.574.167a.531.531 0 00-.215.439c0 .29.314.532.944.729l.339.108c.678.226 1.172.513 1.484.858.313.346.468.776.468 1.293zm1.986.86l-.242.715c-.078.235-.183.417-.314.541a.647.647 0 01-.46.188.74.74 0 01-.553-.222.766.766 0 01-.216-.558c0-.09.007-.174.02-.252.014-.078.032-.149.058-.214l1.842-5.003c.133-.36.301-.624.5-.793.2-.167.445-.253.737-.253.275 0 .515.08.717.241.202.161.358.394.468.697l1.797 5.086c.034.107.061.204.079.287.018.084.027.159.027.224 0 .224-.075.406-.224.547s-.341.212-.573.212a.728.728 0 01-.52-.195c-.137-.13-.245-.328-.327-.594l-.2-.656h-2.616v.002zm.458-1.488h1.691l-.816-2.626-.875 2.626zm6.225-.038v1.805c0 .385-.066.672-.2.86-.133.188-.335.282-.607.282-.273 0-.476-.094-.609-.282-.133-.188-.199-.475-.199-.86v-4.97c0-.387.066-.675.199-.866.133-.189.335-.283.609-.283.272 0 .475.094.607.283.133.191.2.479.2.866v1.673h2.965v-1.673c0-.387.066-.675.199-.866.132-.189.335-.283.609-.283.272 0 .475.094.607.283.133.191.199.479.199.866v4.97c0 .385-.066.672-.199.86-.133.188-.335.282-.607.282-.274 0-.477-.094-.609-.282-.133-.188-.199-.475-.199-.86v-1.805h-2.965z"/><path fill="#0062AE" d="M189.052 0a2.656 2.656 0 00-2.653 2.654c0 1.463 1.19 2.653 2.653 2.653s2.653-1.19 2.653-2.653A2.655 2.655 0 00189.052 0zm0 5.056a2.406 2.406 0 01-2.403-2.402c0-1.325 1.078-2.403 2.403-2.403s2.403 1.078 2.403 2.403a2.405 2.405 0 01-2.403 2.402z"/></svg>